<?xml version="1.0" encoding="UTF-8"?>
<svg version="1.1" xmlns="http://www.w3.org/2000/svg" width="26" height="32">
<path d="M0 0 C8.58 0 17.16 0 26 0 C26 10.56 26 21.12 26 32 C17.42 32 8.84 32 0 32 C0 21.44 0 10.88 0 0 Z " fill="#FAF7F7" transform="translate(0,0)"/>
<path d="M0 0 C0 1.65 0 3.3 0 5 C-0.66 5 -1.32 5 -2 5 C-1.67 6.32 -1.34 7.64 -1 9 C-4.69513931 10.1668861 -8.20700983 10.13310829 -12.0625 10.125 C-13.90521484 10.12886719 -13.90521484 10.12886719 -15.78515625 10.1328125 C-19 10 -19 10 -22 9 C-21.67 7.68 -21.34 6.36 -21 5 C-22.32 4.67 -23.64 4.34 -25 4 C-24.67 3.01 -24.34 2.02 -24 1 C-22.41058594 1.01740234 -22.41058594 1.01740234 -20.7890625 1.03515625 C-19.40104342 1.04453476 -18.01302245 1.05363489 -16.625 1.0625 C-15.57699219 1.07506836 -15.57699219 1.07506836 -14.5078125 1.08789062 C-9.4427623 1.11224183 -5.13693903 -0.0951285 0 0 Z " fill="#DFD3D4" transform="translate(25,19)"/>
<path d="M0 0 C3.3 0 6.6 0 10 0 C11 1 11 1 11.3125 4.375 C11 8 11 8 9 9.9375 C8.34 10.288125 7.68 10.63875 7 11 C7.33 12.98 7.66 14.96 8 17 C9.65 17.33 11.3 17.66 13 18 C12.34 18.66 11.68 19.32 11 20 C10.01 20 9.02 20 8 20 C7.67 20.99 7.34 21.98 7 23 C7 22.01 7 21.02 7 20 C4.69 20.33 2.38 20.66 0 21 C0 14.07 0 7.14 0 0 Z " fill="#FBFAF9" transform="translate(0,0)"/>
<path d="M0 0 C0.33 0 0.66 0 1 0 C1 3.96 1 7.92 1 12 C-7.58 12 -16.16 12 -25 12 C-25 9.03 -25 6.06 -25 3 C-23.68 3.33 -22.36 3.66 -21 4 C-21.33 5.32 -21.66 6.64 -22 8 C-16.39 8 -10.78 8 -5 8 C-6.32 7.34 -7.64 6.68 -9 6 C-6.69 6 -4.38 6 -2 6 C-2 5.34 -2 4.68 -2 4 C-1.34 4 -0.68 4 0 4 C0 2.68 0 1.36 0 0 Z " fill="#F4F2F1" transform="translate(25,20)"/>
<path d="M0 0 C0.33 0 0.66 0 1 0 C1 2.31 1 4.62 1 7 C1.33 6.01 1.66 5.02 2 4 C2.99 4 3.98 4 5 4 C7.125 9.625 7.125 9.625 6 13 C4.35 13.33 2.7 13.66 1 14 C1 14.33 1 14.66 1 15 C-1.375 15.1875 -1.375 15.1875 -4 15 C-6 12 -6 12 -5.875 9.5625 C-4.83149485 6.50652062 -3.33060919 5.18494611 -1 3 C-0.67 2.01 -0.34 1.02 0 0 Z " fill="#C6ABB2" transform="translate(12,3)"/>
<path d="M0 0 C0.33 0 0.66 0 1 0 C0.4140625 6.15234375 0.4140625 6.15234375 0 8 C-0.99 8.495 -0.99 8.495 -2 9 C-2.65213292 11.02463255 -2.65213292 11.02463255 -3 13 C-1.68 13.66 -0.36 14.32 1 15 C-1.375 15.1875 -1.375 15.1875 -4 15 C-6 12 -6 12 -5.875 9.5625 C-4.83149485 6.50652062 -3.33060919 5.18494611 -1 3 C-0.67 2.01 -0.34 1.02 0 0 Z " fill="#FB8936" transform="translate(12,3)"/>
<path d="M0 0 C5.75 -0.125 5.75 -0.125 8 1 C7.67 2.32 7.34 3.64 7 5 C4.69 4.67 2.38 4.34 0 4 C0 2.68 0 1.36 0 0 Z " fill="#AEA9CA" transform="translate(1,20)"/>
<path d="M0 0 C2.31 0 4.62 0 7 0 C7 1.65 7 3.3 7 5 C4.69 5.33 2.38 5.66 0 6 C0 4.02 0 2.04 0 0 Z " fill="#A09DBE" transform="translate(18,19)"/>
<path d="M0 0 C1.32 0.33 2.64 0.66 4 1 C3.67 2.32 3.34 3.64 3 5 C3.99 5.33 4.98 5.66 6 6 C4.68 6 3.36 6 2 6 C2.33 6.99 2.66 7.98 3 9 C2.01 9 1.02 9 0 9 C0 6.03 0 3.06 0 0 Z " fill="#FBF9F9" transform="translate(0,23)"/>
<path d="M0 0 C0.639375 0.2475 1.27875 0.495 1.9375 0.75 C2.2675 1.74 2.5975 2.73 2.9375 3.75 C0.5625 4.375 0.5625 4.375 -2.0625 4.75 C-2.7225 4.09 -3.3825 3.43 -4.0625 2.75 C-4.0625 2.09 -4.0625 1.43 -4.0625 0.75 C-2.0625 -0.25 -2.0625 -0.25 0 0 Z " fill="#9793BD" transform="translate(14.0625,20.25)"/>
</svg>
